# File created by Blade
# Date/Time:  Tue Sep 30 19:29:51 2014
#---------------------------------------------------------
:version 1.10
:name HOM
:units
  mass 1.0
  length 1.000000
  angle deg
:documentation
     Acclaim Skeleton File
:root
   axis xyz
   order TX TY TZ RX RY RZ
   position 0.000000 0.000000 0.000000
   orientation 0 0 0
:bonedata
   begin
      id 1
      name RightUpLeg_dum
      direction -1.000000 0.000000 0.000000
      length 3.766986
      axis 0.0 0.0 0.0 xyz
   end
   begin
      id 2
      name LeftUpLeg_dum
      direction 1.000000 0.000000 0.000000
      length 3.766986
      axis 0.0 0.0 0.0 xyz
   end
   begin
      id 3
      name Spine_dum
      direction 0.000000 1.000000 0.000000
      length 7.779697
      axis 0.0 0.0 0.0 xyz
   end
   begin
      id 4
      name RightUpLeg
      direction 0.000000 -1.000000 0.000000
      length 18.017682
      axis 0.0 0.0 0.0 xyz
      dof rx ry rz
   end
   begin
      id 5
      name RightLeg
      direction 0.000000 -1.000000 0.000000
      length 16.881075
      axis 0.0 0.0 0.0 xyz
      dof rx ry rz
   end
   begin
      id 6
      name RightFoot
      direction 0.000000 -0.258819 0.965926
      length 5.770812
      axis 15.0 0.0 0.0 xyz
      dof rx ry rz
   end
   begin
      id 7
      name RightToeBase
      direction 0.000000 0.000000 1.000000
      length 2.952750
      axis 0.0 0.0 0.0 xyz
      dof rx ry rz
   end
   begin
      id 8
      name LeftUpLeg
      direction 0.000000 -1.000000 0.000000
      length 18.017682
      axis 0.0 0.0 0.0 xyz
      dof rx ry rz
   end
   begin
      id 9
      name LeftLeg
      direction 0.000000 -1.000000 0.000000
      length 16.881075
      axis 0.0 0.0 0.0 xyz
      dof rx ry rz
   end
   begin
      id 10
      name LeftFoot
      direction 0.000000 -0.258819 0.965926
      length 5.770812
      axis 15.0 0.0 0.0 xyz
      dof rx ry rz
   end
   begin
      id 11
      name LeftToeBase
      direction 0.000000 0.000000 1.000000
      length 2.952750
      axis 0.0 0.0 0.0 xyz
      dof rx ry rz
   end
   begin
      id 12
      name Spine
      direction 0.000000 1.000000 0.000000
      length 0.000000
      axis 0.0 0.0 0.0 xyz
      dof rx ry rz
   end
   begin
      id 13
      name Spine_dum1
      direction 0.000000 1.000000 0.000000
      length 10.941760
      axis 0.0 0.0 0.0 xyz
   end
   begin
      id 14
      name Spine_dum2
      direction 0.000000 1.000000 0.000000
      length 10.941760
      axis 0.0 0.0 0.0 xyz
   end
   begin
      id 15
      name Spine_dum3
      direction 0.000000 1.000000 0.000000
      length 16.646042
      axis 0.0 0.0 0.0 xyz
   end
   begin
      id 16
      name RightShoulder
      direction -1.000000 0.000000 0.000000
      length 7.708937
      axis 0.0 0.0 90.0 xyz
      dof rx ry rz
   end
   begin
      id 17
      name RightArm
      direction -1.000000 0.000000 0.000000
      length 11.521345
      axis 0.0 0.0 90.0 xyz
      dof rx ry rz
   end
   begin
      id 18
      name RightForeArm
      direction -1.000000 0.000000 0.000000
      length 10.175898
      axis 0.0 0.0 90.0 xyz
      dof ry rz rx
   end
   begin
      id 19
      name RightHand
      direction -1.000000 0.000000 0.000000
      length 0.000000
      axis 0.0 0.0 90.0 xyz
      dof rx ry rz
   end
   begin
      id 20
      name RightHand_dum1
      direction -1.000000 0.000000 0.000000
      length 3.937000
      axis 0.0 0.0 90.0 xyz
   end
   begin
      id 21
      name RightHand_dum2
      direction 0.000000 0.000000 0.000000
      length 0.000000
      axis 0.0 0.0 90.0 xyz
   end
   begin
      id 22
      name RightHandThumb1
      direction 0.000000 0.000000 1.000000
      length 3.937000
      axis 0.0 0.0 90.0 xyz
      dof rx rz ry
   end
   begin
      id 23
      name LeftShoulder
      direction 1.000000 0.000000 0.000000
      length 7.708937
      axis 0.0 0.0 -90.0 xyz
      dof rx ry rz
   end
   begin
      id 24
      name LeftArm
      direction 1.000000 0.000000 0.000000
      length 11.521345
      axis 0.0 0.0 -90.0 xyz
      dof rx ry rz
   end
   begin
      id 25
      name LeftForeArm
      direction 1.000000 0.000000 0.000000
      length 10.175898
      axis 0.0 0.0 -90.0 xyz
      dof ry rz rx
   end
   begin
      id 26
      name LeftHand
      direction 1.000000 0.000000 0.000000
      length 0.000000
      axis 0.0 0.0 -90.0 xyz
      dof rx ry rz
   end
   begin
      id 27
      name LeftHand_dum1
      direction 1.000000 0.000000 0.000000
      length 3.937000
      axis 0.0 0.0 -90.0 xyz
   end
   begin
      id 28
      name LeftHand_dum2
      direction 0.000000 0.000000 0.000000
      length 0.000000
      axis 0.0 0.0 -90.0 xyz
   end
   begin
      id 29
      name LeftHandThumb1
      direction 0.000000 0.000000 1.000000
      length 3.937000
      axis 0.0 0.0 -90.0 xyz
      dof rx rz ry
   end
   begin
      id 30
      name Head
      direction 0.000000 1.000000 0.000000
      length 4.527550
      axis 0.0 0.0 0.0 xyz
      dof rx ry rz
   end
:hierarchy
   begin
      root RightUpLeg_dum LeftUpLeg_dum Spine_dum
      RightUpLeg_dum RightUpLeg
      LeftUpLeg_dum LeftUpLeg
      Spine_dum Spine
      RightUpLeg RightLeg
      RightLeg RightFoot
      RightFoot RightToeBase
      LeftUpLeg LeftLeg
      LeftLeg LeftFoot
      LeftFoot LeftToeBase
      Spine Spine_dum1 Spine_dum2 Spine_dum3
      Spine_dum1 RightShoulder
      Spine_dum2 LeftShoulder
      Spine_dum3 Head
      RightShoulder RightArm
      RightArm RightForeArm
      RightForeArm RightHand
      RightHand RightHand_dum1 RightHand_dum2
      RightHand_dum2 RightHandThumb1
      LeftShoulder LeftArm
      LeftArm LeftForeArm
      LeftForeArm LeftHand
      LeftHand LeftHand_dum1 LeftHand_dum2
      LeftHand_dum2 LeftHandThumb1
   end

# File created by Blade
# Date/Time:  Mon Sep 22 17:46:01 2014
# Frame Rate: 120.000 fps
#------------------------------------------------------
:FULLY-SPECIFIED
:DEGREES
425
root 4.808164 37.668463 4.715631 -9.613040 21.646740 -6.128905
RightUpLeg -14.292349 27.645772 3.769637
RightLeg -0.596595 -0.000000 0.000000
RightFoot -3.218244 -25.829471 13.369765
RightToeBase -3.079167 -0.000000 0.000000
LeftUpLeg 15.400747 -28.939075 -5.415672
LeftLeg -0.868688 -0.000000 0.000000
LeftFoot -8.098808 14.972955 -11.959569
LeftToeBase 6.685240 -0.000000 -0.000000
Spine 14.796656 -24.687100 -6.203539
RightShoulder -2.944121 -33.313782 -5.515933
RightArm 19.037174 -25.319306 63.643957
RightForeArm 7.645899 -0.000000 46.070967
RightHand -4.436793 -0.000000 -10.095089
RightHandThumb1 -24.326973 -0.000000 -32.862282
LeftShoulder -12.720797 30.651283 5.163592
LeftArm 64.691132 -9.290196 -69.386315
LeftForeArm 17.898721 -0.000000 79.768456
LeftHand -22.694976 -0.000000 17.734320
LeftHandThumb1 -26.253704 0.000000 33.147579
Head 17.939494 2.636831 11.739832
426
root 4.789458 37.655606 4.715838 -9.727072 21.347780 -6.157288
RightUpLeg -13.898305 27.070046 4.325832
RightLeg -2.307471 -0.000000 0.000000
RightFoot -3.454366 -23.907653 14.481744
RightToeBase -3.214279 -0.000000 0.000000
LeftUpLeg 15.660831 -28.597275 -5.311585
LeftLeg -1.208455 -0.000000 0.000000
LeftFoot -8.012420 14.770265 -11.948454
LeftToeBase 6.595960 -0.000000 -0.000000
Spine 14.935414 -24.355549 -6.228098
RightShoulder -2.897751 -33.318484 -5.517953
RightArm 19.034007 -25.405600 63.711006
RightForeArm 7.632896 -0.000000 45.934560
RightHand -4.287975 -0.000000 -10.537744
RightHandThumb1 -24.326973 -0.000000 -32.862282
LeftShoulder -12.642100 30.595733 4.973493
LeftArm 64.785650 -9.548174 -69.161187
LeftForeArm 17.820186 -0.000000 79.826574
LeftHand -22.612055 -0.000000 17.616372
LeftHandThumb1 -26.253704 0.000000 33.147579
Head 18.024273 2.719351 11.718738
427
root 4.757835 37.647328 4.708697 -9.766192 20.926024 -6.231611
RightUpLeg -13.843979 26.501854 4.890132
RightLeg -3.322942 -0.000000 0.000000
RightFoot -3.063219 -21.713935 14.070845
RightToeBase -3.250508 -0.000000 0.000000
LeftUpLeg 15.767233 -28.149762 -5.077379
LeftLeg -1.466314 -0.000000 0.000000
LeftFoot -7.954021 14.589671 -11.876808
LeftToeBase 6.479369 -0.000000 -0.000000
Spine 14.951001 -23.921970 -6.146865
RightShoulder -2.849605 -33.304933 -5.488566
RightArm 19.028316 -25.545501 63.723047
RightForeArm 7.750849 -0.000000 45.797979
RightHand -4.450846 -0.000000 -10.281156
RightHandThumb1 -24.326973 -0.000000 -32.862282
LeftShoulder -12.592806 30.629193 4.751034
LeftArm 64.960198 -9.800292 -68.951191
LeftForeArm 17.886197 -0.000000 79.863634
LeftHand -22.595030 -0.000000 17.584928
LeftHandThumb1 -26.253704 0.000000 33.147579
Head 18.137035 2.694442 11.613147
428
root 4.717618 37.642744 4.706172 -9.784941 20.336894 -6.333621
RightUpLeg -14.006710 26.094655 5.528346
RightLeg -3.683954 -0.000000 0.000000
RightFoot -2.546316 -19.806961 12.669362
RightToeBase -3.590983 -0.000000 0.000000
LeftUpLeg 15.889419 -27.704947 -4.823053
LeftLeg -1.765609 -0.000000 0.000000
LeftFoot -7.868782 14.586862 -11.739214
LeftToeBase 6.104009 -0.000000 -0.000000
Spine 14.892979 -23.362656 -5.987491
RightShoulder -2.790392 -33.317751 -5.455485
RightArm 19.081713 -25.697801 63.676883
RightForeArm 7.827012 -0.000000 45.578016
RightHand -4.433487 -0.000000 -10.249062
RightHandThumb1 -24.326973 -0.000000 -32.862282
LeftShoulder -12.623360 30.680098 4.445999
LeftArm 65.173987 -10.047978 -68.756043
LeftForeArm 17.841434 -0.000000 79.904046
LeftHand -22.730881 -0.000000 17.421861
LeftHandThumb1 -26.253704 0.000000 33.147579
Head 18.309180 2.702271 11.476765
429
root 4.671373 37.641127 4.711073 -9.835946 19.655682 -6.465249
RightUpLeg -14.243565 25.739403 6.295493
RightLeg -3.488617 -0.000000 0.000000
RightFoot -2.647477 -18.525202 12.147693
RightToeBase -3.578333 -0.000000 0.000000
LeftUpLeg 16.039343 -27.196416 -4.550934
LeftLeg -2.010980 -0.000000 0.000000
LeftFoot -7.866444 14.695495 -11.679855
LeftToeBase 5.970270 -0.000000 -0.000000
Spine 14.843932 -22.739103 -5.809208
RightShoulder -2.733793 -33.335982 -5.402238
RightArm 19.180519 -25.873056 63.556634
RightForeArm 7.786319 -0.000000 45.349339
RightHand -4.226647 0.000000 -10.270497
RightHandThumb1 -24.326973 -0.000000 -32.862282
LeftShoulder -12.639712 30.703081 4.208920
LeftArm 65.253616 -10.261009 -68.549242
LeftForeArm 17.849064 -0.000000 79.993901
LeftHand -22.781238 0.000000 17.358551
LeftHandThumb1 -26.253704 0.000000 33.147579
Head 18.507616 2.768053 11.388530
430
root 4.627616 37.640037 4.708501 -9.814858 18.936794 -6.527712
RightUpLeg -14.641007 25.089206 7.145037
RightLeg -2.716231 -0.000000 0.000000
RightFoot -3.236702 -17.944217 12.822754
RightToeBase -3.543534 -0.000000 0.000000
LeftUpLeg 16.076345 -26.645505 -4.326301
LeftLeg -2.150013 -0.000000 0.000000
LeftFoot -7.882738 14.819098 -11.626235
LeftToeBase 5.803010 -0.000000 -0.000000
Spine 14.736259 -22.117213 -5.692694
RightShoulder -2.658131 -33.382139 -5.360917
RightArm 19.365354 -26.129227 63.368788
RightForeArm 7.919199 0.000000 45.111809
RightHand -4.402774 -0.000000 -9.736172
RightHandThumb1 -24.326973 -0.000000 -32.862282
LeftShoulder -12.714559 30.823011 3.971109
LeftArm 65.387155 -10.477674 -68.444114
LeftForeArm 17.876252 -0.000000 80.104850
LeftHand -22.773286 0.000000 17.197213
LeftHandThumb1 -26.253704 0.000000 33.147579
Head 18.755458 2.868074 11.344786
